<mxfile host="app.diagrams.net" agent="Mozilla/5.0 (Windows NT 10.0; Win64; x64; rv:136.0) Gecko/20100101 Firefox/136.0" version="26.2.4">
  <diagram name="Page-1" id="e7e014a7-5840-1c2e-5031-d8a46d1fe8dd">
    <mxGraphModel dx="1228" dy="775" grid="1" gridSize="10" guides="1" tooltips="1" connect="1" arrows="1" fold="1" page="1" pageScale="1" pageWidth="1169" pageHeight="826" background="none" math="0" shadow="0">
      <root>
        <mxCell id="0" />
        <mxCell id="1" parent="0" />
        <mxCell id="IEIff4qm2t2kF-HDfa4j-73" style="edgeStyle=orthogonalEdgeStyle;rounded=0;orthogonalLoop=1;jettySize=auto;html=1;entryX=0.5;entryY=1;entryDx=0;entryDy=0;endArrow=block;endFill=0;" edge="1" parent="1" source="IEIff4qm2t2kF-HDfa4j-44" target="IEIff4qm2t2kF-HDfa4j-60">
          <mxGeometry relative="1" as="geometry">
            <mxPoint x="250" y="350" as="targetPoint" />
          </mxGeometry>
        </mxCell>
        <mxCell id="IEIff4qm2t2kF-HDfa4j-44" value="Client" style="rounded=0;whiteSpace=wrap;html=1;" vertex="1" parent="1">
          <mxGeometry x="58" y="460" width="120" height="60" as="geometry" />
        </mxCell>
        <mxCell id="IEIff4qm2t2kF-HDfa4j-55" style="edgeStyle=orthogonalEdgeStyle;rounded=0;orthogonalLoop=1;jettySize=auto;html=1;entryX=0.5;entryY=1;entryDx=0;entryDy=0;endArrow=block;endFill=0;exitX=0.5;exitY=0;exitDx=0;exitDy=0;" edge="1" parent="1" source="IEIff4qm2t2kF-HDfa4j-74">
          <mxGeometry relative="1" as="geometry">
            <mxPoint x="380.03999999999996" y="199" as="sourcePoint" />
            <mxPoint x="380" y="80" as="targetPoint" />
          </mxGeometry>
        </mxCell>
        <mxCell id="IEIff4qm2t2kF-HDfa4j-56" value="Entity" style="swimlane;fontStyle=0;childLayout=stackLayout;horizontal=1;startSize=30;horizontalStack=0;resizeParent=1;resizeParentMax=0;resizeLast=0;collapsible=1;marginBottom=0;whiteSpace=wrap;html=1;" vertex="1" parent="1">
          <mxGeometry x="320" y="20" width="140" height="60" as="geometry" />
        </mxCell>
        <mxCell id="IEIff4qm2t2kF-HDfa4j-57" value="ID" style="text;strokeColor=none;fillColor=none;align=left;verticalAlign=middle;spacingLeft=4;spacingRight=4;overflow=hidden;points=[[0,0.5],[1,0.5]];portConstraint=eastwest;rotatable=0;whiteSpace=wrap;html=1;" vertex="1" parent="IEIff4qm2t2kF-HDfa4j-56">
          <mxGeometry y="30" width="140" height="30" as="geometry" />
        </mxCell>
        <mxCell id="IEIff4qm2t2kF-HDfa4j-70" style="edgeStyle=orthogonalEdgeStyle;rounded=0;orthogonalLoop=1;jettySize=auto;html=1;entryX=0;entryY=0.5;entryDx=0;entryDy=0;exitX=0.5;exitY=0;exitDx=0;exitDy=0;endArrow=block;endFill=0;" edge="1" parent="1" source="IEIff4qm2t2kF-HDfa4j-60" target="IEIff4qm2t2kF-HDfa4j-56">
          <mxGeometry relative="1" as="geometry" />
        </mxCell>
        <mxCell id="IEIff4qm2t2kF-HDfa4j-60" value="Person" style="swimlane;fontStyle=0;childLayout=stackLayout;horizontal=1;startSize=30;horizontalStack=0;resizeParent=1;resizeParentMax=0;resizeLast=0;collapsible=1;marginBottom=0;whiteSpace=wrap;html=1;" vertex="1" parent="1">
          <mxGeometry x="119" y="160" width="119" height="240" as="geometry">
            <mxRectangle x="119" y="160" width="80" height="30" as="alternateBounds" />
          </mxGeometry>
        </mxCell>
        <mxCell id="IEIff4qm2t2kF-HDfa4j-61" value="First Name" style="text;strokeColor=none;fillColor=none;align=left;verticalAlign=middle;spacingLeft=4;spacingRight=4;overflow=hidden;points=[[0,0.5],[1,0.5]];portConstraint=eastwest;rotatable=0;whiteSpace=wrap;html=1;" vertex="1" parent="IEIff4qm2t2kF-HDfa4j-60">
          <mxGeometry y="30" width="119" height="30" as="geometry" />
        </mxCell>
        <mxCell id="IEIff4qm2t2kF-HDfa4j-62" value="Last Name" style="text;strokeColor=none;fillColor=none;align=left;verticalAlign=middle;spacingLeft=4;spacingRight=4;overflow=hidden;points=[[0,0.5],[1,0.5]];portConstraint=eastwest;rotatable=0;whiteSpace=wrap;html=1;" vertex="1" parent="IEIff4qm2t2kF-HDfa4j-60">
          <mxGeometry y="60" width="119" height="30" as="geometry" />
        </mxCell>
        <mxCell id="IEIff4qm2t2kF-HDfa4j-63" value="Phone" style="text;strokeColor=none;fillColor=none;align=left;verticalAlign=middle;spacingLeft=4;spacingRight=4;overflow=hidden;points=[[0,0.5],[1,0.5]];portConstraint=eastwest;rotatable=0;whiteSpace=wrap;html=1;" vertex="1" parent="IEIff4qm2t2kF-HDfa4j-60">
          <mxGeometry y="90" width="119" height="30" as="geometry" />
        </mxCell>
        <mxCell id="IEIff4qm2t2kF-HDfa4j-64" value="Email" style="text;strokeColor=none;fillColor=none;align=left;verticalAlign=middle;spacingLeft=4;spacingRight=4;overflow=hidden;points=[[0,0.5],[1,0.5]];portConstraint=eastwest;rotatable=0;whiteSpace=wrap;html=1;" vertex="1" parent="IEIff4qm2t2kF-HDfa4j-60">
          <mxGeometry y="120" width="119" height="30" as="geometry" />
        </mxCell>
        <mxCell id="IEIff4qm2t2kF-HDfa4j-65" value="City" style="text;strokeColor=none;fillColor=none;align=left;verticalAlign=middle;spacingLeft=4;spacingRight=4;overflow=hidden;points=[[0,0.5],[1,0.5]];portConstraint=eastwest;rotatable=0;whiteSpace=wrap;html=1;" vertex="1" parent="IEIff4qm2t2kF-HDfa4j-60">
          <mxGeometry y="150" width="119" height="30" as="geometry" />
        </mxCell>
        <mxCell id="IEIff4qm2t2kF-HDfa4j-66" value="Address" style="text;strokeColor=none;fillColor=none;align=left;verticalAlign=middle;spacingLeft=4;spacingRight=4;overflow=hidden;points=[[0,0.5],[1,0.5]];portConstraint=eastwest;rotatable=0;whiteSpace=wrap;html=1;" vertex="1" parent="IEIff4qm2t2kF-HDfa4j-60">
          <mxGeometry y="180" width="119" height="30" as="geometry" />
        </mxCell>
        <mxCell id="IEIff4qm2t2kF-HDfa4j-67" value="Gender" style="text;strokeColor=none;fillColor=none;align=left;verticalAlign=middle;spacingLeft=4;spacingRight=4;overflow=hidden;points=[[0,0.5],[1,0.5]];portConstraint=eastwest;rotatable=0;whiteSpace=wrap;html=1;" vertex="1" parent="IEIff4qm2t2kF-HDfa4j-60">
          <mxGeometry y="210" width="119" height="30" as="geometry" />
        </mxCell>
        <mxCell id="IEIff4qm2t2kF-HDfa4j-74" value="Business" style="swimlane;fontStyle=0;childLayout=stackLayout;horizontal=1;startSize=30;horizontalStack=0;resizeParent=1;resizeParentMax=0;resizeLast=0;collapsible=1;marginBottom=0;whiteSpace=wrap;html=1;" vertex="1" parent="1">
          <mxGeometry x="333" y="180" width="93" height="120" as="geometry" />
        </mxCell>
        <mxCell id="IEIff4qm2t2kF-HDfa4j-75" value="Name" style="text;strokeColor=none;fillColor=none;align=left;verticalAlign=middle;spacingLeft=4;spacingRight=4;overflow=hidden;points=[[0,0.5],[1,0.5]];portConstraint=eastwest;rotatable=0;whiteSpace=wrap;html=1;" vertex="1" parent="IEIff4qm2t2kF-HDfa4j-74">
          <mxGeometry y="30" width="93" height="30" as="geometry" />
        </mxCell>
        <mxCell id="IEIff4qm2t2kF-HDfa4j-76" value="General Courses" style="text;strokeColor=none;fillColor=none;align=left;verticalAlign=middle;spacingLeft=4;spacingRight=4;overflow=hidden;points=[[0,0.5],[1,0.5]];portConstraint=eastwest;rotatable=0;whiteSpace=wrap;html=1;" vertex="1" parent="IEIff4qm2t2kF-HDfa4j-74">
          <mxGeometry y="60" width="93" height="30" as="geometry" />
        </mxCell>
        <mxCell id="IEIff4qm2t2kF-HDfa4j-77" value="Location" style="text;strokeColor=none;fillColor=none;align=left;verticalAlign=middle;spacingLeft=4;spacingRight=4;overflow=hidden;points=[[0,0.5],[1,0.5]];portConstraint=eastwest;rotatable=0;whiteSpace=wrap;html=1;" vertex="1" parent="IEIff4qm2t2kF-HDfa4j-74">
          <mxGeometry y="90" width="93" height="30" as="geometry" />
        </mxCell>
        <mxCell id="IEIff4qm2t2kF-HDfa4j-83" style="edgeStyle=orthogonalEdgeStyle;rounded=0;orthogonalLoop=1;jettySize=auto;html=1;entryX=1;entryY=0.5;entryDx=0;entryDy=0;exitX=0.5;exitY=0;exitDx=0;exitDy=0;endArrow=block;endFill=0;" edge="1" parent="1" source="IEIff4qm2t2kF-HDfa4j-79" target="IEIff4qm2t2kF-HDfa4j-56">
          <mxGeometry relative="1" as="geometry" />
        </mxCell>
        <mxCell id="IEIff4qm2t2kF-HDfa4j-84" style="edgeStyle=orthogonalEdgeStyle;rounded=0;orthogonalLoop=1;jettySize=auto;html=1;entryX=1;entryY=0.5;entryDx=0;entryDy=0;" edge="1" parent="1" source="IEIff4qm2t2kF-HDfa4j-79" target="IEIff4qm2t2kF-HDfa4j-76">
          <mxGeometry relative="1" as="geometry" />
        </mxCell>
        <mxCell id="IEIff4qm2t2kF-HDfa4j-79" value="Course" style="swimlane;fontStyle=0;childLayout=stackLayout;horizontal=1;startSize=30;horizontalStack=0;resizeParent=1;resizeParentMax=0;resizeLast=0;collapsible=1;marginBottom=0;whiteSpace=wrap;html=1;" vertex="1" parent="1">
          <mxGeometry x="519" y="150" width="160" height="210" as="geometry" />
        </mxCell>
        <mxCell id="IEIff4qm2t2kF-HDfa4j-80" value="Name" style="text;strokeColor=none;fillColor=none;align=left;verticalAlign=middle;spacingLeft=4;spacingRight=4;overflow=hidden;points=[[0,0.5],[1,0.5]];portConstraint=eastwest;rotatable=0;whiteSpace=wrap;html=1;" vertex="1" parent="IEIff4qm2t2kF-HDfa4j-79">
          <mxGeometry y="30" width="160" height="30" as="geometry" />
        </mxCell>
        <mxCell id="IEIff4qm2t2kF-HDfa4j-81" value="Occurrence (DateTime) " style="text;strokeColor=none;fillColor=none;align=left;verticalAlign=middle;spacingLeft=4;spacingRight=4;overflow=hidden;points=[[0,0.5],[1,0.5]];portConstraint=eastwest;rotatable=0;whiteSpace=wrap;html=1;" vertex="1" parent="IEIff4qm2t2kF-HDfa4j-79">
          <mxGeometry y="60" width="160" height="30" as="geometry" />
        </mxCell>
        <mxCell id="IEIff4qm2t2kF-HDfa4j-82" value="Numbers Of Participants" style="text;strokeColor=none;fillColor=none;align=left;verticalAlign=middle;spacingLeft=4;spacingRight=4;overflow=hidden;points=[[0,0.5],[1,0.5]];portConstraint=eastwest;rotatable=0;whiteSpace=wrap;html=1;" vertex="1" parent="IEIff4qm2t2kF-HDfa4j-79">
          <mxGeometry y="90" width="160" height="40" as="geometry" />
        </mxCell>
        <mxCell id="IEIff4qm2t2kF-HDfa4j-85" value="Category" style="text;strokeColor=none;fillColor=none;align=left;verticalAlign=middle;spacingLeft=4;spacingRight=4;overflow=hidden;points=[[0,0.5],[1,0.5]];portConstraint=eastwest;rotatable=0;whiteSpace=wrap;html=1;" vertex="1" parent="IEIff4qm2t2kF-HDfa4j-79">
          <mxGeometry y="130" width="160" height="40" as="geometry" />
        </mxCell>
        <mxCell id="IEIff4qm2t2kF-HDfa4j-92" value="Instructor" style="text;strokeColor=none;fillColor=none;align=left;verticalAlign=middle;spacingLeft=4;spacingRight=4;overflow=hidden;points=[[0,0.5],[1,0.5]];portConstraint=eastwest;rotatable=0;whiteSpace=wrap;html=1;" vertex="1" parent="IEIff4qm2t2kF-HDfa4j-79">
          <mxGeometry y="170" width="160" height="40" as="geometry" />
        </mxCell>
        <mxCell id="IEIff4qm2t2kF-HDfa4j-90" style="edgeStyle=orthogonalEdgeStyle;rounded=0;orthogonalLoop=1;jettySize=auto;html=1;entryX=1;entryY=0.5;entryDx=0;entryDy=0;exitX=0.5;exitY=0;exitDx=0;exitDy=0;endArrow=block;endFill=0;" edge="1" parent="1" source="IEIff4qm2t2kF-HDfa4j-86" target="IEIff4qm2t2kF-HDfa4j-56">
          <mxGeometry relative="1" as="geometry" />
        </mxCell>
        <mxCell id="IEIff4qm2t2kF-HDfa4j-91" style="edgeStyle=orthogonalEdgeStyle;rounded=0;orthogonalLoop=1;jettySize=auto;html=1;entryX=1;entryY=0.5;entryDx=0;entryDy=0;" edge="1" parent="1" source="IEIff4qm2t2kF-HDfa4j-86" target="IEIff4qm2t2kF-HDfa4j-85">
          <mxGeometry relative="1" as="geometry" />
        </mxCell>
        <mxCell id="IEIff4qm2t2kF-HDfa4j-86" value="Category" style="swimlane;fontStyle=0;childLayout=stackLayout;horizontal=1;startSize=30;horizontalStack=0;resizeParent=1;resizeParentMax=0;resizeLast=0;collapsible=1;marginBottom=0;whiteSpace=wrap;html=1;" vertex="1" parent="1">
          <mxGeometry x="720" y="270" width="140" height="60" as="geometry" />
        </mxCell>
        <mxCell id="IEIff4qm2t2kF-HDfa4j-87" value="Name" style="text;strokeColor=none;fillColor=none;align=left;verticalAlign=middle;spacingLeft=4;spacingRight=4;overflow=hidden;points=[[0,0.5],[1,0.5]];portConstraint=eastwest;rotatable=0;whiteSpace=wrap;html=1;" vertex="1" parent="IEIff4qm2t2kF-HDfa4j-86">
          <mxGeometry y="30" width="140" height="30" as="geometry" />
        </mxCell>
        <mxCell id="IEIff4qm2t2kF-HDfa4j-96" style="edgeStyle=orthogonalEdgeStyle;rounded=0;orthogonalLoop=1;jettySize=auto;html=1;entryX=0.5;entryY=1;entryDx=0;entryDy=0;endArrow=block;endFill=0;" edge="1" parent="1" source="IEIff4qm2t2kF-HDfa4j-93" target="IEIff4qm2t2kF-HDfa4j-60">
          <mxGeometry relative="1" as="geometry" />
        </mxCell>
        <mxCell id="IEIff4qm2t2kF-HDfa4j-97" style="edgeStyle=orthogonalEdgeStyle;rounded=0;orthogonalLoop=1;jettySize=auto;html=1;entryX=0;entryY=0.5;entryDx=0;entryDy=0;exitX=0.75;exitY=0;exitDx=0;exitDy=0;" edge="1" parent="1" source="IEIff4qm2t2kF-HDfa4j-93" target="IEIff4qm2t2kF-HDfa4j-92">
          <mxGeometry relative="1" as="geometry" />
        </mxCell>
        <mxCell id="IEIff4qm2t2kF-HDfa4j-93" value="Instructor" style="rounded=0;whiteSpace=wrap;html=1;" vertex="1" parent="1">
          <mxGeometry x="190" y="460" width="120" height="60" as="geometry" />
        </mxCell>
        <mxCell id="IEIff4qm2t2kF-HDfa4j-103" value="&lt;p style=&quot;margin:0px;margin-top:4px;text-align:center;&quot;&gt;&lt;i&gt;&amp;lt;&amp;lt;Interface&amp;gt;&amp;gt;&lt;/i&gt;&lt;br&gt;&lt;b&gt;SearchStrategyInterface&lt;/b&gt;&lt;/p&gt;&lt;br&gt;&lt;hr size=&quot;1&quot; style=&quot;border-style:solid;&quot;&gt;&lt;p style=&quot;margin:0px;margin-left:4px;&quot;&gt;+ filter(Type1, Type2): &lt;br&gt;&lt;br&gt;&lt;/p&gt;" style="verticalAlign=top;align=left;overflow=fill;html=1;whiteSpace=wrap;" vertex="1" parent="1">
          <mxGeometry x="1724" y="80" width="190" height="90" as="geometry" />
        </mxCell>
        <mxCell id="IEIff4qm2t2kF-HDfa4j-112" value="SearchAgeStrategy" style="swimlane;fontStyle=0;childLayout=stackLayout;horizontal=1;startSize=26;fillColor=none;horizontalStack=0;resizeParent=1;resizeParentMax=0;resizeLast=0;collapsible=1;marginBottom=0;whiteSpace=wrap;html=1;" vertex="1" parent="1">
          <mxGeometry x="1480" y="200" width="160" height="70" as="geometry" />
        </mxCell>
        <mxCell id="IEIff4qm2t2kF-HDfa4j-113" value="+ filter(int minAge, int maxAge)" style="text;strokeColor=none;fillColor=none;align=left;verticalAlign=top;spacingLeft=4;spacingRight=4;overflow=hidden;rotatable=0;points=[[0,0.5],[1,0.5]];portConstraint=eastwest;whiteSpace=wrap;html=1;" vertex="1" parent="IEIff4qm2t2kF-HDfa4j-112">
          <mxGeometry y="26" width="160" height="44" as="geometry" />
        </mxCell>
        <mxCell id="IEIff4qm2t2kF-HDfa4j-116" style="edgeStyle=orthogonalEdgeStyle;rounded=0;orthogonalLoop=1;jettySize=auto;html=1;entryX=0;entryY=0.5;entryDx=0;entryDy=0;endArrow=block;endFill=0;exitX=0.5;exitY=0;exitDx=0;exitDy=0;" edge="1" parent="1" source="IEIff4qm2t2kF-HDfa4j-112" target="IEIff4qm2t2kF-HDfa4j-103">
          <mxGeometry relative="1" as="geometry">
            <mxPoint x="1798.92" y="-310.00000000000017" as="targetPoint" />
          </mxGeometry>
        </mxCell>
        <mxCell id="IEIff4qm2t2kF-HDfa4j-120" style="edgeStyle=orthogonalEdgeStyle;rounded=0;orthogonalLoop=1;jettySize=auto;html=1;entryX=0.5;entryY=1;entryDx=0;entryDy=0;endArrow=block;endFill=0;" edge="1" parent="1" source="IEIff4qm2t2kF-HDfa4j-118" target="IEIff4qm2t2kF-HDfa4j-103">
          <mxGeometry relative="1" as="geometry" />
        </mxCell>
        <mxCell id="IEIff4qm2t2kF-HDfa4j-118" value="SearchRadiusStrategy" style="swimlane;fontStyle=0;childLayout=stackLayout;horizontal=1;startSize=26;fillColor=none;horizontalStack=0;resizeParent=1;resizeParentMax=0;resizeLast=0;collapsible=1;marginBottom=0;whiteSpace=wrap;html=1;" vertex="1" parent="1">
          <mxGeometry x="1640" y="249" width="160" height="70" as="geometry" />
        </mxCell>
        <mxCell id="IEIff4qm2t2kF-HDfa4j-119" value="+ filter(int startingLocation, int distance)" style="text;strokeColor=none;fillColor=none;align=left;verticalAlign=top;spacingLeft=4;spacingRight=4;overflow=hidden;rotatable=0;points=[[0,0.5],[1,0.5]];portConstraint=eastwest;whiteSpace=wrap;html=1;" vertex="1" parent="IEIff4qm2t2kF-HDfa4j-118">
          <mxGeometry y="26" width="160" height="44" as="geometry" />
        </mxCell>
        <mxCell id="IEIff4qm2t2kF-HDfa4j-126" style="edgeStyle=orthogonalEdgeStyle;rounded=0;orthogonalLoop=1;jettySize=auto;html=1;entryX=0.5;entryY=1;entryDx=0;entryDy=0;endArrow=block;endFill=0;" edge="1" parent="1" source="IEIff4qm2t2kF-HDfa4j-123" target="IEIff4qm2t2kF-HDfa4j-103">
          <mxGeometry relative="1" as="geometry" />
        </mxCell>
        <mxCell id="IEIff4qm2t2kF-HDfa4j-123" value="SearchCategoryStrategy" style="swimlane;fontStyle=0;childLayout=stackLayout;horizontal=1;startSize=26;fillColor=none;horizontalStack=0;resizeParent=1;resizeParentMax=0;resizeLast=0;collapsible=1;marginBottom=0;whiteSpace=wrap;html=1;" vertex="1" parent="1">
          <mxGeometry x="1839" y="249" width="160" height="70" as="geometry" />
        </mxCell>
        <mxCell id="IEIff4qm2t2kF-HDfa4j-124" value="+ filter(Category category)" style="text;strokeColor=none;fillColor=none;align=left;verticalAlign=top;spacingLeft=4;spacingRight=4;overflow=hidden;rotatable=0;points=[[0,0.5],[1,0.5]];portConstraint=eastwest;whiteSpace=wrap;html=1;" vertex="1" parent="IEIff4qm2t2kF-HDfa4j-123">
          <mxGeometry y="26" width="160" height="44" as="geometry" />
        </mxCell>
        <mxCell id="IEIff4qm2t2kF-HDfa4j-129" style="edgeStyle=orthogonalEdgeStyle;rounded=0;orthogonalLoop=1;jettySize=auto;html=1;entryX=1;entryY=0.5;entryDx=0;entryDy=0;endArrow=block;endFill=0;exitX=0.5;exitY=0;exitDx=0;exitDy=0;" edge="1" parent="1" source="IEIff4qm2t2kF-HDfa4j-127" target="IEIff4qm2t2kF-HDfa4j-103">
          <mxGeometry relative="1" as="geometry" />
        </mxCell>
        <mxCell id="IEIff4qm2t2kF-HDfa4j-127" value="SearchDateStrategy" style="swimlane;fontStyle=0;childLayout=stackLayout;horizontal=1;startSize=26;fillColor=none;horizontalStack=0;resizeParent=1;resizeParentMax=0;resizeLast=0;collapsible=1;marginBottom=0;whiteSpace=wrap;html=1;" vertex="1" parent="1">
          <mxGeometry x="1999" y="205" width="160" height="70" as="geometry" />
        </mxCell>
        <mxCell id="IEIff4qm2t2kF-HDfa4j-128" value="+ filter(DateTime start, DateTime end)" style="text;strokeColor=none;fillColor=none;align=left;verticalAlign=top;spacingLeft=4;spacingRight=4;overflow=hidden;rotatable=0;points=[[0,0.5],[1,0.5]];portConstraint=eastwest;whiteSpace=wrap;html=1;" vertex="1" parent="IEIff4qm2t2kF-HDfa4j-127">
          <mxGeometry y="26" width="160" height="44" as="geometry" />
        </mxCell>
      </root>
    </mxGraphModel>
  </diagram>
</mxfile>
